:SAMPLES-PER-SECOND 30
:FULLY-SPECIFIED
:DEGREES
338
root  13.3322 42.6911 4.67408 164.616 -77.0467 -171.978
RightUpLeg  -41.972 -4.10587 -14.1575
RightLeg  62.5199 -5.98332 -12.8225
RightFoot  22.5356 -4.34207 14.7086
RightToes  -5.28226e-011 1.30204e-014 -6.03759e-014
Spine  26.3548 -8.26302 -17.9991
Spine1  -0.168558 -13.1652 4.82085
HEad  -19.053 49.5951 -3.7168
LeftShoulder1  1.12814 -1.66194 -15.0242
LeftArm  -7.60344 29.1365 -18.5767
LeftForeArm  -25.6659 3.4153 -10.9284
LeftHand  -0.257092 4.22018 25.1174
RightShoulder  1.20734 1.51117 17.5243
RightArm  -2.51834 -36.3564 63.3926
RightForeArm  -26.8755 42.1036 11.6482
RightHand  -1.41407 -0.431096 -32.4839
LeftUpLeg  5.10931 18.4191 23.9038
LeftLeg  10.4388 16.7937 3.07556
LeftFoot  35.9492 8.98829 -20.8778
LeftToes  -2.75829e-010 5.07641e-011 -5.51782e-011
339
root  13.4694 42.2556 5.16145 164.875 -77.1096 -170.929
RightUpLeg  -41.0694 -10.4022 -13.2273
RightLeg  59.7237 -6.51085 -12.3605
RightFoot  23.2174 -4.7426 15.7049
RightToes  -5.28226e-011 1.30204e-014 -6.03759e-014
Spine  24.6313 -6.66936 -10.0286
Spine1  -1.43416 -8.19843 -3.11822
HEad  -14.9812 37.8588 0.598091
LeftShoulder1  0.751419 0.158689 -15.9098
LeftArm  -12.9236 14.2075 -17.188
LeftForeArm  -26.6738 4.30273 -9.73607
LeftHand  -0.105455 4.93104 27.0275
RightShoulder  1.85808 3.62329 19.6082
RightArm  -7.90401 -45.2044 60.6348
RightForeArm  -26.6545 47.2269 13.7554
RightHand  -1.33204 -0.665605 -32.0983
LeftUpLeg  1.34734 17.9916 22.1226
LeftLeg  13.7262 16.9256 4.40783
LeftFoot  37.2241 8.97072 -20.2581
LeftToes  -2.75829e-010 5.07641e-011 -5.51782e-011
340
root  13.6117 41.4409 5.76257 166.347 -77.1302 -170.891
RightUpLeg  -40.3674 -16.4979 -14.0898
RightLeg  54.6073 -6.75557 -10.5013
RightFoot  25.9361 -4.65447 14.2867
RightToes  -5.28226e-011 1.30204e-014 -6.03759e-014
Spine  23.8547 -2.90961 -1.29826
Spine1  -2.7836 -1.32674 -10.5212
HEad  -13.142 20.7409 2.67795
LeftShoulder1  0.295524 2.36359 -19.5636
LeftArm  -17.5287 -4.16076 -19.4132
LeftForeArm  -33.2713 2.2045 -9.46699
LeftHand  0.206227 6.14157 30.6757
RightShoulder  2.59381 5.36995 23.0867
RightArm  -8.83578 -52.9956 53.4306
RightForeArm  -27.8327 49.0925 14.6917
RightHand  -1.13985 -1.05744 -30.0627
LeftUpLeg  -3.91505 15.4729 19.6741
LeftLeg  21.2741 16.392 7.43712
LeftFoot  29.3832 8.69007 -23.784
LeftToes  -2.75829e-010 5.07641e-011 -5.51782e-011
341
root  13.7296 40.2563 6.48399 170.627 -76.565 -174.655
RightUpLeg  -39.0765 -20.6007 -17.6101
RightLeg  48.0968 -6.90187 -8.47171
RightFoot  26.1437 -4.1991 12.8799
RightToes  -5.28226e-011 1.30204e-014 -6.03759e-014
Spine  25.18 1.43115 7.23555
Spine1  -2.92512 6.24059 -18.7388
HEad  -14.5108 3.09807 3.13224
LeftShoulder1  -0.429801 5.2109 -19.5894
LeftArm  -19.6708 -19.467 -30.8338
LeftForeArm  -37.0828 -0.999732 -9.40822
LeftHand  0.335128 6.49367 33.6078
RightShoulder  2.85188 5.65069 25.1045
RightArm  -3.05681 -55.9338 43.5066
RightForeArm  -30.1099 42.8823 12.1049
RightHand  -1.2348 -0.247086 -27.5512
LeftUpLeg  -6.67552 12.2908 17.2589
LeftLeg  28.7486 16.235 9.73469
LeftFoot  15.1941 6.89537 -29.0959
LeftToes  -2.75829e-010 5.07641e-011 -5.51782e-011
342
root  13.8595 38.9005 7.08067 174.872 -75.8459 -179.34
RightUpLeg  -36.4658 -21.1986 -23.0606
RightLeg  39.9714 -6.97056 -6.50649
RightFoot  25.4559 -4.2397 13.2349
RightToes  -5.28226e-011 1.30204e-014 -6.03759e-014
Spine  27.7865 4.45204 13.0886
Spine1  -2.13977 11.9315 -24.1496
HEad  -17.2091 -8.38468 1.39164
LeftShoulder1  -0.927806 7.67999 -15.0978
LeftArm  -22.5844 -23.9929 -48.8444
LeftForeArm  -33.6036 -8.04433 -7.72747
LeftHand  0.0556691 5.54411 33.5662
RightShoulder  2.40811 4.62911 23.3906
RightArm  4.63642 -52.5521 34.3268
RightForeArm  -34.3469 29.5051 8.60821
RightHand  -1.63314 1.16435 -28.5594
LeftUpLeg  -6.61453 11.8195 15.467
LeftLeg  32.7769 13.0512 9.26716
LeftFoot  0.226308 3.30729 -31.4849
LeftToes  -2.75829e-010 5.07641e-011 -5.51782e-011
343
root  14.1207 37.5984 7.25328 176.542 -75.4151 178.37
RightUpLeg  -33.6652 -17.0234 -28.3734
RightLeg  31.6815 -5.0212 -3.60714
RightFoot  27.7193 -4.7322 13.8502
RightToes  -5.28226e-011 1.30204e-014 -6.03759e-014
Spine  29.9477 5.52326 12.0519
Spine1  -2.4376 12.5545 -21.1524
HEad  -18.405 -8.26293 -3.01699
LeftShoulder1  -0.64319 6.83007 -12.1397
LeftArm  -25.9094 -14.6911 -58.2751
LeftForeArm  -33.0422 -23.3828 -7.01769
LeftHand  -0.190661 4.69893 32.0496
RightShoulder  1.70841 3.06157 19.6638
RightArm  0.357149 -42.3859 27.0109
RightForeArm  -34.0356 16.374 8.78043
RightHand  -1.75199 1.11038 -30.8147
LeftUpLeg  -6.65383 13.2862 15.5097
LeftLeg  35.8813 8.48836 6.90806
LeftFoot  -11.3271 0.0723265 -30.5475
LeftToes  -2.75829e-010 5.07641e-011 -5.51782e-011
344
root  14.5621 36.3475 6.86814 173.935 -75.3359 -179.4
RightUpLeg  -33.1793 -9.85478 -30.9685
RightLeg  27.9629 0.0285446 -0.132493
RightFoot  31.0766 -4.55136 12.2891
RightToes  -5.28226e-011 1.30204e-014 -6.03759e-014
Spine  31.3801 5.32728 3.83366
Spine1  -4.51178 8.38154 -10.0574
HEad  -18.7891 2.3442 -7.11375
LeftShoulder1  0.296515 2.18306 -14.0937
LeftArm  -33.3065 0.613374 -51.6782
LeftForeArm  -33.5217 -36.9456 -9.94837
LeftHand  -0.0682646 5.12266 31.383
RightShoulder  1.22039 1.76129 16.6034
RightArm  -15.3976 -26.8821 24.6272
RightForeArm  -28.7104 12.1695 9.1737
RightHand  -1.803 1.02839 -32.0212
LeftUpLeg  -9.0099 15.9833 18.2795
LeftLeg  41.6698 3.93005 4.13436
LeftFoot  -18.1881 -1.73113 -29.9846
LeftToes  -2.75829e-010 5.07641e-011 -5.51782e-011
